<svg xmlns="http://www.w3.org/2000/svg" viewBox="0 0 512 512">
  <rect width="512" height="512" rx="100" fill="#0C0C0E"/>
  <path d="M256 120 C 150 120 100 200 130 280 C 150 330 190 350 256 420 C 322 350 362 330 382 280 C 412 200 362 120 256 120 Z" fill="#88D66C" opacity="0.2" />
  <path d="M256 140 C 170 140 130 210 150 280 C 170 320 200 340 256 400 C 312 340 342 320 362 280 C 382 210 342 140 256 140 Z" fill="#88D66C" opacity="0.5" />
  <path d="M256 160 C 190 160 160 220 170 280 C 190 310 210 330 256 380 C 302 330 322 310 342 280 C 352 220 322 160 256 160 Z" fill="#88D66C" />
  <rect x="246" y="380" width="20" height="80" fill="#2D2D33" />
</svg>
